<svg width="20" height="20" viewBox="0 0 20 20" fill="none" xmlns="http://www.w3.org/2000/svg">
<path d="M11.0265 0C12.8272 0 13.2073 0.0200099 14.1277 0.06003C15.1881 0.110055 15.9184 0.28014 16.5486 0.530265C17.2089 0.78039 17.7691 1.13057 18.3193 1.68084C18.8796 2.23112 19.2197 2.7914 19.4798 3.45173C19.7299 4.08204 19.89 4.81241 19.94 5.88294C19.99 6.83342 20 7.2036 20 9.2046V10.8054C20 12.8064 19.99 13.1766 19.94 14.1271C19.9243 14.9543 19.7687 15.7729 19.4798 16.5483C19.2197 17.2086 18.8796 17.7689 18.3293 18.3192C17.7691 18.8794 17.2089 19.2196 16.5486 19.4797C15.9184 19.7299 15.1881 19.8899 14.1277 19.94C13.1773 19.99 12.7972 20 10.7964 20H9.20574C7.20495 20 6.83481 19.99 5.87443 19.94C5.04728 19.9241 4.22877 19.7684 3.45347 19.4797C2.78681 19.2291 2.18262 18.8365 1.68277 18.3292C1.17037 17.8276 0.774244 17.2196 0.522313 16.5483C0.233819 15.7728 0.0782403 14.9543 0.0621309 14.1271C0.0130887 13.094 -0.00692707 12.0597 0.00210731 11.0255V8.97449C0.00210731 7.17359 0.0221151 6.7934 0.0621309 5.87294C0.112151 4.81241 0.282218 4.08204 0.522313 3.45173C0.782415 2.7914 1.12255 2.23112 1.68277 1.68084C2.17814 1.16801 2.78364 0.774564 3.45347 0.530265C4.22823 0.238325 5.04672 0.0793447 5.87443 0.06003C6.79479 0.0200099 7.17494 0 8.97565 0H11.0265ZM11.0465 1.8009H8.95564C7.22496 1.8009 6.85481 1.82091 5.95446 1.86093C4.98407 1.90095 4.45387 2.06103 4.10373 2.2011C3.63354 2.38119 3.30341 2.6013 2.95327 2.95148C2.60313 3.30165 2.38305 3.63182 2.20298 4.10205C2.07292 4.45223 1.90286 4.98249 1.86284 5.96298C1.82283 6.86343 1.80282 7.22361 1.80282 8.96448V11.0455C1.80282 12.7864 1.82283 13.1466 1.86284 14.047C1.90286 15.0175 2.06292 15.5478 2.20298 15.8979C2.38305 16.3682 2.60313 16.6983 2.95327 17.0485C3.30341 17.3987 3.63354 17.6188 4.10373 17.7989C4.45387 17.939 4.98407 18.099 5.96446 18.1391C6.93484 18.1891 7.28498 18.1991 9.44584 18.1991H10.5563C12.7271 18.1991 13.0673 18.1891 14.0477 18.1391C15.018 18.099 15.5482 17.939 15.8984 17.7989C16.3686 17.6188 16.6987 17.3987 17.0488 17.0485C17.399 16.6983 17.6191 16.3682 17.7991 15.8979C17.9392 15.5478 18.0992 15.0175 18.1393 14.047C18.1893 13.0665 18.1993 12.7264 18.1993 10.5553V9.45473C18.1993 7.28364 18.1893 6.93347 18.1393 5.95298C18.0992 4.98249 17.9392 4.45223 17.7991 4.10205C17.6382 3.66726 17.3818 3.27409 17.0488 2.95148C16.7265 2.61823 16.3333 2.36178 15.8984 2.2011C15.3051 1.98416 14.6793 1.86915 14.0477 1.86093C13.048 1.81317 12.0472 1.79316 11.0465 1.8009ZM10.0061 4.86243C11.3685 4.86243 12.6751 5.40371 13.6385 6.36719C14.6019 7.33067 15.1431 8.63743 15.1431 10C15.1431 11.3626 14.6019 12.6693 13.6385 13.6328C12.6751 14.5963 11.3685 15.1376 10.0061 15.1376C8.64363 15.1376 7.33701 14.5963 6.37363 13.6328C5.41025 12.6693 4.86903 11.3626 4.86903 10C4.86903 8.63743 5.41025 7.33067 6.37363 6.36719C7.33701 5.40371 8.64363 4.86243 10.0061 4.86243ZM10.0061 6.66333C9.12121 6.66333 8.27261 7.01487 7.64692 7.64062C7.02124 8.26637 6.66974 9.11506 6.66974 10C6.66974 10.8849 7.02124 11.7336 7.64692 12.3594C8.27261 12.9851 9.12121 13.3367 10.0061 13.3367C10.8909 13.3367 11.7395 12.9851 12.3652 12.3594C12.9909 11.7336 13.3424 10.8849 13.3424 10C13.3424 9.11506 12.9909 8.26637 12.3652 7.64062C11.7395 7.01487 10.8909 6.66333 10.0061 6.66333ZM15.3382 3.46173C15.6565 3.46173 15.9619 3.58822 16.187 3.81338C16.4122 4.03853 16.5386 4.34391 16.5386 4.66233C16.5386 4.98075 16.4122 5.28613 16.187 5.51128C15.9619 5.73644 15.6565 5.86293 15.3382 5.86293C15.0198 5.86293 14.7144 5.73644 14.4893 5.51128C14.2642 5.28613 14.1377 4.98075 14.1377 4.66233C14.1377 4.34391 14.2642 4.03853 14.4893 3.81338C14.7144 3.58822 15.0198 3.46173 15.3382 3.46173Z" fill="white"/>
</svg>
