<svg width="20" height="20" viewBox="0 0 20 20" fill="none" xmlns="http://www.w3.org/2000/svg">
<path d="M10.0006 0C7.66765 0.00823732 5.4105 0.826027 3.61714 2.31278C1.82378 3.79953 0.606257 5.86236 0.173887 8.14663C-0.258483 10.4309 0.12131 12.7939 1.24797 14.8294C2.37464 16.8649 4.17778 18.4457 6.34742 19.3001C6.24706 18.5101 6.17681 17.3001 6.37753 16.4301L7.55176 11.46C7.55176 11.46 7.25067 10.86 7.25067 9.98003C7.25067 8.59003 8.0636 7.56002 9.07725 7.56002C9.93032 7.56002 10.3518 8.20003 10.3518 8.96003C10.3518 9.82003 9.79985 11.1 9.5088 12.29C9.26793 13.29 10.0106 14.1 11.0042 14.1C12.7906 14.1 14.1555 12.23 14.1555 9.53003C14.1555 7.13002 12.4293 5.47002 9.96042 5.47002C9.37391 5.44435 8.78825 5.53736 8.2388 5.74344C7.68936 5.94952 7.18751 6.2644 6.76357 6.66907C6.33962 7.07373 6.00236 7.55979 5.77215 8.09791C5.54193 8.63604 5.42353 9.21506 5.4241 9.80003C5.4241 10.66 5.75529 11.58 6.16677 12.08C6.24706 12.18 6.2571 12.27 6.22699 12.37L5.94598 13.5C5.90583 13.68 5.79544 13.73 5.61479 13.64C4.35024 13.05 3.56742 11.24 3.56742 9.76003C3.56742 6.61002 5.87572 3.72001 10.2113 3.72001C13.6838 3.72001 16.4036 6.18002 16.4036 9.49003C16.4036 12.94 14.2157 15.71 11.1848 15.71C10.1812 15.71 9.21775 15.18 8.8966 14.56L8.26432 16.9301C7.96812 17.8577 7.54964 18.7421 7.01984 19.5601C8.39863 19.9816 9.85242 20.1021 11.2822 19.9134C12.7119 19.7246 14.084 19.231 15.3051 18.4662C16.5261 17.7014 17.5673 16.6834 18.3579 15.4815C19.1485 14.2795 19.6698 12.9219 19.8863 11.5012C20.1028 10.0804 20.0094 8.62982 19.6126 7.24824C19.2157 5.86666 18.5246 4.58654 17.5865 3.49507C16.6483 2.4036 15.4851 1.52643 14.176 0.923299C12.867 0.320169 11.4428 0.00525259 10.0006 0Z" fill="white"/>
</svg>
