<svg width="20" height="16" viewBox="0 0 20 16" fill="none" xmlns="http://www.w3.org/2000/svg">
<path d="M20 1.85108C19.25 2.21538 18.5 2.34338 17.62 2.46154C18.5 1.96923 19.12 1.23077 19.37 0.246154C18.5606 0.720055 17.6743 1.05313 16.75 1.23077C15.9485 0.455158 14.8737 0.0142376 13.75 0C11.62 0 9.75 1.85108 9.75 4.06646C9.75 4.43077 9.75 4.67692 9.88 4.92308C8.24216 4.86226 6.63643 4.45742 5.17046 3.73571C3.70448 3.014 2.41212 1.99209 1.38 0.738462C1.00812 1.37416 0.834247 2.10347 0.88 2.83569C0.891623 3.49732 1.06825 4.14599 1.39434 4.7246C1.72043 5.30322 2.18597 5.79403 2.75 6.15385C2.12 6.15385 1.5 5.90769 0.87 5.66154C0.87 7.63077 2.25 9.23569 4.12 9.6C3.75 9.728 3.37 9.728 3 9.728C2.75 9.728 2.5 9.728 2.25 9.6C2.75 11.2049 4.25 12.4357 6.13 12.4357C4.67779 13.584 2.8622 14.1938 1 14.1588H0C1.87496 15.3197 4.03554 15.9562 6.25 16C13.75 16 17.88 9.84615 17.88 4.54892V4.05662C18.7387 3.47918 19.4617 2.72708 20 1.85108Z" fill="white"/>
</svg>
