<svg width="23" height="16" viewBox="0 0 23 16" fill="none" xmlns="http://www.w3.org/2000/svg">
<path d="M9.14531 11.38V4.62L15.1612 8L9.14531 11.38ZM22.5139 2.5C22.3848 2.01772 22.1298 1.57733 21.7744 1.22285C21.4189 0.868375 20.9755 0.612223 20.4883 0.48C18.6957 2.98023e-08 11.4949 0 11.4949 0C11.4949 0 4.30427 2.98023e-08 2.51167 0.48C2.02454 0.612223 1.58109 0.868375 1.22564 1.22285C0.870185 1.57733 0.615188 2.01772 0.486129 2.5C3.01829e-08 4.28 0 8 0 8C0 8 3.01829e-08 11.72 0.476002 13.5C0.605939 13.9835 0.862461 14.4247 1.21979 14.7793C1.57712 15.1338 2.02267 15.3893 2.51167 15.52C4.30427 16 11.5051 16 11.5051 16C11.5051 16 18.6957 16 20.4883 15.52C20.9755 15.3878 21.4189 15.1316 21.7744 14.7771C22.1298 14.4227 22.3848 13.9823 22.5139 13.5C23 11.72 23 8 23 8C23 8 23 4.28 22.524 2.5H22.5139Z" fill="white"/>
</svg>
